<svg xmlns="http://www.w3.org/2000/svg" width="112" height="138" viewBox="0 0 112 138">
  <g id="Gruppe_2" data-name="Gruppe 2" transform="translate(-1113 -16)">
    <text id="Win_rate" data-name="Win rate" transform="translate(1131 149)" fill="rgba(255,255,255,0.87)" font-size="20" font-family="Roboto-Medium, Roboto" font-weight="500" letter-spacing="0.008em"><tspan x="0" y="0">Win rate</tspan></text>
    <text id="_56.8_" data-name="56.8%" transform="translate(1136 81)" fill="rgba(255,255,255,0.87)" font-size="24" font-family="Roboto-Regular, Roboto" letter-spacing="0.007em"><tspan x="0" y="0">56.8%</tspan></text>
    <g id="Pfad_8" data-name="Pfad 8" transform="translate(1113 16)" fill="none" opacity="0.5">
      <path d="M56,0A56,56,0,1,1,0,56,56,56,0,0,1,56,0Z" stroke="none"/>
      <path d="M 56 5 C 49.11283874511719 5 42.43435668945312 6.347740173339844 36.15003967285156 9.005783081054688 C 30.07758331298828 11.57420349121094 24.62291717529297 15.252197265625 19.93756103515625 19.93756103515625 C 15.252197265625 24.62291717529297 11.57420349121094 30.07758331298828 9.005783081054688 36.15003967285156 C 6.347740173339844 42.43435668945312 5 49.11283874511719 5 56 C 5 62.88716125488281 6.347740173339844 69.56564331054688 9.005783081054688 75.84996032714844 C 11.57420349121094 81.92242431640625 15.252197265625 87.37708282470703 19.93756103515625 92.06243896484375 C 24.62291717529297 96.747802734375 30.07758331298828 100.4257965087891 36.15003967285156 102.9942169189453 C 42.43435668945312 105.6522598266602 49.11283874511719 107 56 107 C 62.88716125488281 107 69.56564331054688 105.6522598266602 75.84996032714844 102.9942169189453 C 81.92242431640625 100.4257965087891 87.37708282470703 96.747802734375 92.06243896484375 92.06243896484375 C 96.747802734375 87.37708282470703 100.4257965087891 81.92242431640625 102.9942169189453 75.84996032714844 C 105.6522598266602 69.56564331054688 107 62.88716125488281 107 56 C 107 49.11283874511719 105.6522598266602 42.43435668945312 102.9942169189453 36.15003967285156 C 100.4257965087891 30.07758331298828 96.747802734375 24.62291717529297 92.06243896484375 19.93756103515625 C 87.37708282470703 15.252197265625 81.92242431640625 11.57420349121094 75.84996032714844 9.005783081054688 C 69.56564331054688 6.347740173339844 62.88716125488281 5 56 5 M 56 0 C 86.92794036865234 0 112 25.07205963134766 112 56 C 112 86.92794036865234 86.92794036865234 112 56 112 C 25.07205963134766 112 0 86.92794036865234 0 56 C 0 25.07205963134766 25.07205963134766 0 56 0 Z" stroke="none" fill="#3cbc8d"/>
    </g>
  </g>
</svg>
