<?xml version="1.0" encoding="UTF-8" standalone="no"?>
<svg
   data-v-423bf9ae=""
   viewBox="0 0 613.2885761706877 163"
   class="iconAbove"
   version="1.1"
   id="svg8"
   sodipodi:docname="default-monochrome.svg"
   inkscape:version="1.1.1 (3bf5ae0d25, 2021-09-20)"
   xmlns:inkscape="http://www.inkscape.org/namespaces/inkscape"
   xmlns:sodipodi="http://sodipodi.sourceforge.net/DTD/sodipodi-0.dtd"
   xmlns="http://www.w3.org/2000/svg"
   xmlns:svg="http://www.w3.org/2000/svg">
  <defs
     id="defs12" />
  <sodipodi:namedview
     id="namedview10"
     pagecolor="#ffffff"
     bordercolor="#666666"
     borderopacity="1.0"
     inkscape:pageshadow="2"
     inkscape:pageopacity="0.0"
     inkscape:pagecheckerboard="0"
     showgrid="false"
     inkscape:zoom="1.9126396"
     inkscape:cx="288.86781"
     inkscape:cy="63.524776"
     inkscape:window-width="2560"
     inkscape:window-height="1377"
     inkscape:window-x="2552"
     inkscape:window-y="-8"
     inkscape:window-maximized="1"
     inkscape:current-layer="layer2" />
  <g
     inkscape:groupmode="layer"
     id="layer2"
     inkscape:label="Layer 2" />
  <!---->
  <!---->
  <!---->
  <!---->
  <!---->
  <g
     inkscape:groupmode="layer"
     id="layer1"
     inkscape:label="Layer 1">
    <g
       data-v-423bf9ae=""
       id="d4c785e6-9244-4314-a998-9f2bb5825339"
       fill="#ffffff"
       transform="matrix(4.6016868,0,0,4.6016868,115.11197,59.381243)">
      <path
         d="m 1.12,0.49 v 0 10.01 H 6.3 v -2 H 3.12 V 0.49 Z M 13.2,10.5 v 0 -2 h -3.18 v -2 h 2.64 V 4.49 h -2.64 v -2 h 3.01 v -2 H 8.02 V 10.5 Z m 9.1,-0.62 v 0 -4.39 H 20.27 V 8.5 c -0.18,0.03 -0.38,0.05 -0.56,0.05 -3.86,0 -4.04,-5.97 0,-6.11 1.07,-0.03 1.71,0.19 2.1,0.36 L 22.05,0.77 C 21.87,0.71 20.9,0.36 19.71,0.41 c -6.94,0.25 -6.61,10.15 0,10.15 0.95,0 1.82,-0.24 2.59,-0.68 z m 4.2,0.62 V 0.49 h -2 V 10.5 Z m 7.07,0.14 v 0 c 6.89,0 6.89,-10.32 0,-10.32 -6.89,0 -6.89,10.32 0,10.32 z m 0,-2.07 v 0 c -4,0 -4,-6.19 0,-6.19 4.01,0 4.01,6.19 0,6.19 z m 9.05,-3.52 v 0 l 5.06,5.66 h 0.54 V 0.5 H 46.2 V 6.16 L 41.15,0.28 H 40.61 V 10.5 h 2.01 z m 7.85,-4.56 v 0 10.01 h 5.18 v -2 H 52.47 V 0.49 Z m 11.72,10.15 v 0 c 6.89,0 6.89,-10.32 0,-10.32 -6.89,0 -6.89,10.32 0,10.32 z m 0,-2.07 v 0 c -4.01,0 -4.01,-6.19 0,-6.19 4,0 4,6.19 0,6.19 z m 14.29,1.93 v 0 L 74.16,6.37 C 77.1,5.52 76.75,0.49 73.18,0.49 H 69.23 V 10.5 h 2 V 6.68 h 0.97 l 2.01,3.82 z M 71.23,2.49 H 73 c 1.35,0 1.35,2.24 0,2.24 h -1.77 v 0 z m 9.56,-2 H 77.81 V 10.5 h 2.98 c 6.67,0 6.67,-10.01 0,-10.01 z m 0,2 c 3.9,0 3.9,6.01 0,6.01 H 79.81 V 2.49 Z m 7.3,5.85 c -1.51,0 -1.51,2.26 0,2.26 1.5,0 1.54,-2.26 0,-2.26 z m 10.22,1.54 v 0 -4.39 H 96.28 V 8.5 c -0.18,0.03 -0.38,0.05 -0.56,0.05 -3.87,0 -4.05,-5.97 0,-6.11 1.06,-0.03 1.71,0.19 2.1,0.36 L 98.06,0.77 C 97.87,0.71 96.91,0.36 95.72,0.41 c -6.95,0.25 -6.61,10.15 0,10.15 0.95,0 1.82,-0.24 2.59,-0.68 z m 9.42,0 v 0 -4.39 H 105.7 V 8.5 c -0.18,0.03 -0.38,0.05 -0.56,0.05 -3.86,0 -4.05,-5.97 0,-6.11 1.06,-0.03 1.71,0.19 2.1,0.36 l 0.24,-2.03 c -0.18,-0.06 -1.15,-0.41 -2.34,-0.36 -6.94,0.25 -6.61,10.15 0,10.15 0.95,0 1.82,-0.24 2.59,-0.68 z"
         id="path2" />
    </g>
    <g
       data-v-423bf9ae=""
       id="46083cc8-f894-42bc-868b-4809a51dc7b8"
       transform="matrix(2.9995996,0,0,2.9995996,3.2567704,47.285517)"
       stroke="none"
       fill="#cf4f72">
      <path
         d="m 12,10.286 6.857,6.857 -6.857,6.858 -12,-12 12,-12 3,3 L 13.286,4.715 12,3.429 3.429,12 12,20.571 15.446,17.125 10.285,12 Z M 22.286,0 l 12,12 -12,12 -3,-3 1.714,-1.714 1.286,1.286 8.571,-8.571 -8.571,-8.571 -3.446,3.446 5.161,5.125 -1.714,1.714 -6.857,-6.857 z"
         id="path5" />
    </g>
  </g>
</svg>
